<svg width="185" height="46" viewBox="0 0 185 46" fill="none" xmlns="http://www.w3.org/2000/svg">
<g clip-path="url(#clip0_99_368)">
<mask id="mask0_99_368" style="mask-type:luminance" maskUnits="userSpaceOnUse" x="0" y="13" width="128" height="29">
<path d="M127.5 13.5H0.5V41.5H127.5V13.5Z" fill="white"/>
</mask>
<g mask="url(#mask0_99_368)">
<path d="M0.5 33.8893V18.9467H5.65452V20.5196H5.71274C6.87761 19.3545 8.36283 18.5098 9.99362 18.5098C11.9739 18.5098 14.158 19.238 15.2064 21.2478C16.7789 19.3545 18.5262 18.5098 20.157 18.5098C22.8945 18.5098 25.9813 19.8788 25.9813 24.0441V33.8893H20.8268V25.4423C20.8268 23.9567 20.0405 22.646 18.2059 22.646C16.5751 22.646 15.8762 23.8402 15.8179 24.9762V33.8893H10.6634V25.4423C10.6634 23.9567 9.87711 22.646 8.04248 22.646C6.32432 22.646 5.65452 23.9567 5.65452 25.1509V33.8893H0.5Z" fill="#0395FF"/>
<path d="M40.5232 18.9473H46.464L34.728 41.4631H28.7872L33.9418 31.5597L26.8652 18.9473H32.806L36.9704 26.6079L40.5232 18.9473Z" fill="#0395FF"/>
<path d="M47.9146 33.8895V13.5H57.5536C59.806 13.5 61.7861 13.9175 63.4944 14.7525C65.2031 15.5875 66.5331 16.7623 67.4841 18.277C68.455 19.7916 68.9403 21.5975 68.9403 23.6947C68.9403 25.7725 68.455 27.5785 67.4841 29.1125C66.5331 30.6272 65.2031 31.802 63.4944 32.637C61.7861 33.472 59.806 33.8895 57.5536 33.8895H47.9146ZM53.6806 29.2873H57.3208C58.4855 29.2873 59.4952 29.0737 60.3496 28.6465C61.2232 28.1999 61.9025 27.559 62.3879 26.724C62.8733 25.8696 63.116 24.8599 63.116 23.6947C63.116 22.5102 62.8733 21.5005 62.3879 20.6654C61.9025 19.8304 61.2232 19.1993 60.3496 18.7721C59.4952 18.3255 58.4855 18.1022 57.3208 18.1022H53.6806V29.2873Z" fill="black"/>
<path d="M71.7119 33.8892V18.1019H76.9828V20.002C77.1271 19.7394 77.4194 19.3253 78.4681 18.7428C79.5164 18.1408 80.7881 17.8398 82.2828 17.8398V22.8207C82.0307 22.7818 81.8073 22.7624 81.6129 22.7624C81.4383 22.743 81.2444 22.7333 81.0308 22.7333C79.9046 22.7333 78.992 23.044 78.2931 23.6654C77.5945 24.2673 77.2448 25.2577 77.2448 26.6364V33.8892H71.7119Z" fill="black"/>
<path d="M84.5659 33.8898V18.1025H90.0992V33.8898H84.5659Z" fill="black"/>
<path d="M98.0929 33.8898L91.5986 18.1025H97.2775L101.066 27.7461L105.053 18.1025H110.324L103.801 33.8898H98.0929Z" fill="black"/>
<path d="M119.598 34.1514C117.734 34.1514 116.104 33.8018 114.706 33.1028C113.327 32.3843 112.25 31.4134 111.473 30.19C110.716 28.9472 110.337 27.5393 110.337 25.9665C110.337 24.3935 110.706 22.9954 111.444 21.772C112.201 20.5292 113.24 19.568 114.56 18.8884C115.88 18.1893 117.365 17.8398 119.016 17.8398C120.569 17.8398 121.986 18.1602 123.267 18.801C124.549 19.4224 125.568 20.3448 126.325 21.5682C127.082 22.7915 127.461 24.277 127.461 26.0247C127.461 26.2189 127.451 26.4422 127.432 26.6946C127.412 26.9471 127.393 27.1801 127.373 27.3937H115.905L115.822 27.0152L115.772 26.6109L115.754 25.9687L115.756 25.1981L115.777 24.8342L115.824 24.4809H122.243C122.136 23.9565 122.157 23.9565 121.928 23.4323C121.691 22.8913 121.268 22.5002 120.763 22.209C120.278 21.9177 119.705 21.772 119.045 21.772C118.385 21.772 117.802 21.9177 117.297 22.209C116.812 22.5002 116.434 22.9178 116.162 23.4615C115.89 23.9858 115.754 24.6071 115.754 25.3256V26.1703C115.754 26.9471 115.909 27.6171 116.22 28.1802C116.55 28.7433 117.016 29.1802 117.618 29.4909C118.22 29.7822 118.938 29.9279 119.773 29.9279C120.55 29.9279 121.21 29.821 121.753 29.6075C122.316 29.3744 122.87 29.0249 123.413 28.5588L126.325 31.5881C125.568 32.4231 124.636 33.064 123.53 33.5106C122.423 33.9378 121.112 34.1514 119.598 34.1514Z" fill="black"/>
</g>
<path d="M132.84 12.5H136.38V33.5H132.84V12.5ZM134.94 15.62V12.5H139.17C140.69 12.5 142.01 12.77 143.13 13.31C144.27 13.83 145.15 14.58 145.77 15.56C146.39 16.52 146.7 17.67 146.7 19.01C146.7 20.35 146.39 21.51 145.77 22.49C145.15 23.47 144.27 24.23 143.13 24.77C142.01 25.29 140.69 25.55 139.17 25.55H134.94V22.43H139.17C140.39 22.43 141.37 22.14 142.11 21.56C142.85 20.98 143.22 20.13 143.22 19.01C143.22 17.89 142.85 17.05 142.11 16.49C141.37 15.91 140.39 15.62 139.17 15.62H134.94ZM152.538 19.7V33.5H149.328V19.7H152.538ZM156.648 23.15C156.348 22.91 156.068 22.73 155.808 22.61C155.548 22.49 155.218 22.43 154.818 22.43C154.278 22.43 153.838 22.57 153.498 22.85C153.158 23.13 152.908 23.52 152.748 24.02C152.608 24.5 152.538 25.07 152.538 25.73L151.458 25.1C151.458 24 151.658 23.03 152.058 22.19C152.478 21.33 153.008 20.65 153.648 20.15C154.308 19.65 154.988 19.4 155.688 19.4C156.188 19.4 156.658 19.48 157.098 19.64C157.538 19.78 157.908 20.04 158.208 20.42L156.648 23.15ZM158.942 26.6C158.942 25.18 159.262 23.93 159.902 22.85C160.562 21.77 161.452 20.93 162.572 20.33C163.692 19.71 164.962 19.4 166.382 19.4C167.802 19.4 169.062 19.71 170.162 20.33C171.282 20.93 172.172 21.77 172.832 22.85C173.492 23.93 173.822 25.18 173.822 26.6C173.822 28 173.492 29.25 172.832 30.35C172.172 31.43 171.282 32.28 170.162 32.9C169.062 33.5 167.802 33.8 166.382 33.8C164.962 33.8 163.692 33.5 162.572 32.9C161.452 32.28 160.562 31.43 159.902 30.35C159.262 29.25 158.942 28 158.942 26.6ZM162.272 26.6C162.272 27.46 162.452 28.22 162.812 28.88C163.172 29.52 163.662 30.03 164.282 30.41C164.902 30.77 165.602 30.95 166.382 30.95C167.142 30.95 167.832 30.77 168.452 30.41C169.092 30.03 169.592 29.52 169.952 28.88C170.312 28.22 170.492 27.46 170.492 26.6C170.492 25.74 170.312 24.98 169.952 24.32C169.592 23.66 169.092 23.15 168.452 22.79C167.832 22.43 167.142 22.25 166.382 22.25C165.602 22.25 164.902 22.43 164.282 22.79C163.662 23.15 163.172 23.66 162.812 24.32C162.452 24.98 162.272 25.74 162.272 26.6Z" fill="#003FE2"/>
<path d="M179.38 19.6199V16.5399H176.3V14.9599H179.38V11.8799H180.96V14.9599H184.06V16.5399H180.96V19.6199H179.38Z" fill="url(#paint0_linear_99_368)"/>
</g>
<defs>
<linearGradient id="paint0_linear_99_368" x1="183" y1="9.99988" x2="198.5" y2="35.9999" gradientUnits="userSpaceOnUse">
<stop stop-color="#003FE2"/>
<stop offset="1" stop-color="#003FE2" stop-opacity="0"/>
</linearGradient>
<clipPath id="clip0_99_368">
<rect width="184" height="45" fill="white" transform="translate(0.5 0.5)"/>
</clipPath>
</defs>
</svg>
